<?xml version="1.0" encoding="UTF-8" standalone="no"?>
<!DOCTYPE svg PUBLIC "-//W3C//DTD SVG 1.1//EN" "http://www.w3.org/Graphics/SVG/1.1/DTD/svg11.dtd">
<svg width="100%" height="100%" viewBox="0 0 1024 1024" version="1.1" xmlns="http://www.w3.org/2000/svg" xmlns:xlink="http://www.w3.org/1999/xlink" xml:space="preserve" xmlns:serif="http://www.serif.com/" style="fill-rule:evenodd;clip-rule:evenodd;stroke-linejoin:round;stroke-miterlimit:2;">
    <g id="Missing">
        <g transform="matrix(102.56,0,0,102.56,-28031.2,-38128.7)">
            <path d="M277.885,379.013C277.8,379.013 277.73,378.945 277.729,378.86C277.727,378.793 277.727,378.739 277.727,378.697C277.727,378.283 277.785,377.926 277.902,377.625C277.988,377.398 278.127,377.17 278.318,376.939C278.459,376.771 278.711,376.527 279.074,376.207C279.441,375.883 279.68,375.625 279.789,375.433C279.899,375.242 279.953,375.033 279.953,374.806C279.953,374.396 279.793,374.037 279.473,373.728C279.152,373.416 278.76,373.26 278.295,373.26C277.846,373.26 277.471,373.4 277.17,373.681C276.894,373.94 276.705,374.332 276.603,374.857C276.588,374.937 276.513,374.992 276.432,374.982C276.228,374.958 275.862,374.915 275.652,374.89C275.61,374.885 275.572,374.863 275.546,374.829C275.521,374.795 275.51,374.752 275.517,374.711C275.632,373.988 275.914,373.428 276.361,373.031C276.846,372.605 277.484,372.392 278.277,372.392C279.117,372.392 279.787,372.621 280.287,373.078C280.787,373.535 281.037,374.088 281.037,374.736C281.037,375.111 280.949,375.457 280.774,375.773C280.598,376.09 280.254,376.474 279.742,376.928C279.399,377.232 279.174,377.457 279.068,377.601C278.963,377.746 278.885,377.912 278.834,378.099C278.79,378.264 278.762,378.518 278.75,378.863C278.747,378.947 278.678,379.013 278.594,379.013C278.403,379.013 278.076,379.013 277.885,379.013ZM277.824,381.129C277.738,381.129 277.668,381.059 277.668,380.973L277.668,380.084C277.668,379.997 277.738,379.928 277.824,379.928L278.713,379.928C278.799,379.928 278.869,379.997 278.869,380.084L278.869,380.973C278.869,381.059 278.799,381.129 278.713,381.129L277.824,381.129Z" style="fill:white;fill-rule:nonzero;"/>
            <path d="M278.594,379.247C278.403,379.247 278.076,379.247 277.885,379.247L277.807,379.24L277.735,379.217L277.669,379.182L277.611,379.136L277.564,379.079L277.528,379.014L277.504,378.942C277.504,378.942 277.495,378.866 277.495,378.865C277.493,378.796 277.493,378.74 277.493,378.697C277.493,378.25 277.558,377.865 277.684,377.541C277.778,377.293 277.929,377.042 278.138,376.79C278.139,376.789 278.139,376.789 278.139,376.789C278.284,376.615 278.544,376.362 278.919,376.031C279.26,375.731 279.485,375.495 279.586,375.317C279.675,375.161 279.719,374.991 279.719,374.806C279.719,374.46 279.581,374.158 279.31,373.897C279.31,373.896 279.31,373.896 279.309,373.896C279.034,373.627 278.695,373.494 278.295,373.494C277.91,373.494 277.588,373.611 277.33,373.852C277.084,374.082 276.923,374.434 276.833,374.901L276.812,374.973L276.778,375.038L276.734,375.095L276.68,375.142L276.619,375.179L276.551,375.204L276.479,375.216C276.479,375.216 276.404,375.215 276.404,375.215C276.201,375.191 275.834,375.147 275.625,375.122L275.548,375.105L275.477,375.073L275.413,375.028L275.36,374.97L275.319,374.903L275.292,374.83L275.281,374.753L275.285,374.674C275.285,374.674 275.285,374.674 275.285,374.674C275.411,373.89 275.721,373.286 276.206,372.856C276.206,372.856 276.207,372.855 276.207,372.855C276.731,372.395 277.42,372.158 278.277,372.158C279.184,372.158 279.905,372.412 280.445,372.905C280.997,373.41 281.271,374.02 281.271,374.736C281.271,375.152 281.173,375.536 280.978,375.887C280.793,376.219 280.435,376.626 279.897,377.103C279.572,377.391 279.357,377.602 279.257,377.739C279.168,377.861 279.103,378.002 279.06,378.161C279.019,378.313 278.995,378.55 278.984,378.871C278.984,378.871 278.984,378.871 278.984,378.872L278.974,378.948L278.949,379.019L278.912,379.083L278.865,379.138L278.808,379.184L278.743,379.218L278.671,379.24C278.671,379.24 278.594,379.247 278.594,379.247ZM277.885,379.013C278.076,379.013 278.403,379.013 278.594,379.013C278.678,379.013 278.747,378.947 278.75,378.863C278.762,378.518 278.79,378.264 278.834,378.099C278.885,377.912 278.963,377.746 279.068,377.601C279.174,377.457 279.399,377.232 279.742,376.928C280.254,376.474 280.598,376.09 280.774,375.773C280.949,375.457 281.037,375.111 281.037,374.736C281.037,374.088 280.787,373.535 280.287,373.078C279.787,372.621 279.117,372.392 278.277,372.392C277.484,372.392 276.846,372.605 276.361,373.031C275.914,373.428 275.632,373.988 275.517,374.711C275.51,374.752 275.521,374.795 275.546,374.829C275.572,374.863 275.61,374.885 275.652,374.89C275.862,374.915 276.228,374.958 276.432,374.982C276.513,374.992 276.588,374.937 276.603,374.857C276.705,374.332 276.894,373.94 277.17,373.681C277.471,373.4 277.846,373.26 278.295,373.26C278.76,373.26 279.152,373.416 279.473,373.728C279.793,374.037 279.953,374.396 279.953,374.806C279.953,375.033 279.899,375.242 279.789,375.433C279.68,375.625 279.441,375.883 279.074,376.207C278.711,376.527 278.459,376.771 278.318,376.939C278.127,377.17 277.988,377.398 277.902,377.625C277.785,377.926 277.727,378.283 277.727,378.697C277.727,378.739 277.727,378.793 277.729,378.86C277.73,378.945 277.8,379.013 277.885,379.013ZM277.824,381.363L277.746,381.355L277.672,381.332L277.606,381.296L277.548,381.248L277.501,381.191L277.465,381.125L277.442,381.051L277.434,380.973L277.434,380.084L277.442,380.005L277.465,379.932L277.501,379.865L277.548,379.808L277.606,379.76L277.672,379.724L277.746,379.701L277.824,379.694L278.713,379.694L278.792,379.701L278.865,379.724L278.931,379.76L278.989,379.808L279.036,379.865L279.072,379.932L279.095,380.005L279.103,380.084L279.103,380.973L279.095,381.051L279.072,381.125L279.036,381.191L278.989,381.248L278.931,381.296L278.865,381.332L278.792,381.355L278.713,381.363L277.824,381.363ZM277.824,381.129L278.713,381.129C278.799,381.129 278.869,381.059 278.869,380.973L278.869,380.084C278.869,379.997 278.799,379.928 278.713,379.928L277.824,379.928C277.738,379.928 277.668,379.997 277.668,380.084L277.668,380.973C277.668,381.059 277.738,381.129 277.824,381.129Z"/>
        </g>
        <path d="M414.476,876.368C379.869,926.854 321.775,960 256,960L255.998,960C251.029,960 246.549,957.006 244.648,952.415C242.747,947.824 243.798,942.54 247.311,939.026L313.468,872.87C317.51,868.828 319.089,862.937 317.609,857.415L288.085,747.229C286.605,741.707 282.293,737.395 276.771,735.915L166.585,706.391C161.063,704.911 155.172,706.49 151.13,710.532L84.974,776.689C81.46,780.203 76.175,781.254 71.584,779.353C66.993,777.451 63.999,772.971 63.999,768.002C64,768.001 64,768.001 64,768C64,662.032 150.032,576 256,576C270.148,576 283.941,577.534 297.222,580.444C302.57,581.653 308.164,580.035 312.041,576.158C349.264,538.972 538.972,349.264 576.176,312.059C580.059,308.176 581.679,302.573 580.468,297.216C577.534,283.941 576,270.148 576,256C576,237.912 578.507,220.405 583.191,203.807C592.426,209.301 601.103,216.002 609.219,223.919C609.267,223.966 609.315,224.013 609.363,224.059C635.42,249.163 648.842,278.221 648.842,311.587C648.842,329.08 644.677,345.232 636.232,360.011C626.099,377.744 603.543,401.183 569.525,431.22C530.607,465.536 503.71,491.791 488.644,509.787C488.617,509.819 488.59,509.851 488.563,509.884C466.447,536.513 450.575,563.012 440.631,589.19C427.386,623.243 420.485,663.7 420.485,710.61C420.485,715.08 420.558,720.883 420.705,728.019C420.719,728.083 421.831,737.454 421.831,737.454L424.741,746.357L429.222,754.373L435.071,761.316L442.12,767.035L447.988,770.173C447.841,783.358 446.363,796.226 443.681,808.647L435.616,813.024L428.535,818.866L422.692,825.948L418.261,834.114L415.45,843.168L414.476,852.807L414.476,876.368ZM694.213,78.712C716.934,69.235 741.861,64 768,64L768.003,64C772.982,64 777.472,67 779.377,71.601C781.282,76.201 780.229,81.497 776.708,85.018L744.071,117.654C741.664,115.312 739.202,112.991 736.685,110.69C723.548,98.682 709.393,88.015 694.213,78.712ZM823.982,308.714L857.415,317.673C862.937,319.152 868.828,317.574 872.87,313.532L939.071,247.331C942.577,243.824 947.85,242.775 952.432,244.672C957.013,246.57 960,251.041 960,256C960,358.114 880.11,441.717 779.477,447.662C784.668,440.234 789.156,433.106 792.946,426.282C812.932,390.308 823.32,351.13 823.982,308.714Z" style="fill:rgb(221,221,221);"/>
        <path d="M40,768C40,648.786 136.786,552 256,552C270.419,552 284.51,553.418 298.141,556.12C340.548,513.746 513.746,340.548 556.141,298.153C553.42,284.521 552,270.425 552,256C552,235.653 554.824,215.959 560.094,197.288C562.12,190.108 567.37,184.279 574.3,181.515C581.229,178.751 589.05,179.367 595.461,183.181C606.286,189.62 616.466,197.46 625.978,206.74C625.99,206.752 626.002,206.764 626.014,206.775C657.167,236.788 672.842,271.696 672.842,311.587C672.842,333.387 667.594,353.5 657.07,371.918C646.124,391.074 622.157,416.764 585.411,449.21L585.398,449.222C547.73,482.435 521.628,507.775 507.046,525.193C507.039,525.201 507.032,525.209 507.026,525.217C486.792,549.581 472.165,573.762 463.067,597.713C463.044,597.772 463.021,597.832 462.999,597.891C450.706,629.494 444.485,667.073 444.485,710.61C444.485,714.86 444.554,720.35 444.691,727.079C444.91,728.777 445.155,730.674 445.344,732.141L446.828,736.684L449.052,740.662L451.958,744.111L455.461,746.953L459.308,749.011C467.199,753.231 472.086,761.492 471.986,770.44C471.822,785.269 470.157,799.741 467.141,813.712C465.664,820.551 461.277,826.405 455.128,829.742L449.101,833.013L445.583,835.915L442.681,839.433L440.482,843.485L439.086,847.981L438.476,854.018L438.476,876.368C438.476,881.212 437.01,885.943 434.271,889.938C395.343,946.728 329.988,984 256,984L255.997,984L245.355,982.404L235.838,977.884L228.02,970.82L222.475,961.599L219.876,951.157L220.41,940.634L223.944,930.708L230.341,922.056L293.231,859.165L266.098,757.902L164.835,730.769L101.945,793.658L93.293,800.056L83.367,803.59L72.843,804.125L62.401,801.526L53.179,795.98L46.115,788.162L41.595,778.644L39.999,768.002C39.999,768.001 40,768.001 40,768C40,761.178 42.904,754.678 47.985,750.126C41.158,756.242 40,761.884 40,768ZM414.476,876.368L414.476,852.807L415.45,843.168L418.261,834.114L422.692,825.948L428.535,818.866L435.616,813.024L443.681,808.647C446.363,796.226 447.841,783.358 447.988,770.173L442.12,767.035L435.071,761.316L429.222,754.373L424.741,746.357L421.831,737.454C421.831,737.454 420.719,728.083 420.705,728.019C420.558,720.883 420.485,715.08 420.485,710.61C420.485,663.7 427.386,623.243 440.631,589.19C450.575,563.012 466.447,536.513 488.563,509.884C488.59,509.851 488.617,509.819 488.644,509.787C503.71,491.791 530.607,465.536 569.525,431.22C603.543,401.183 626.099,377.744 636.232,360.011C644.677,345.232 648.842,329.08 648.842,311.587C648.842,278.221 635.42,249.163 609.363,224.059C609.315,224.013 609.267,223.966 609.219,223.919C601.103,216.002 592.426,209.301 583.191,203.807C578.507,220.405 576,237.912 576,256C576,270.148 577.534,283.941 580.468,297.216C581.679,302.573 580.059,308.176 576.176,312.059C538.972,349.264 349.264,538.972 312.041,576.158C308.164,580.035 302.57,581.653 297.222,580.444C283.941,577.534 270.148,576 256,576C150.032,576 64,662.032 64,768C64,768.001 64,768.001 63.999,768.002C63.999,772.971 66.993,777.451 71.584,779.353C76.175,781.254 81.46,780.203 84.974,776.689L151.13,710.532C155.172,706.49 161.063,704.911 166.585,706.391L276.771,735.915C282.293,737.395 286.605,741.707 288.085,747.229L317.609,857.415C319.089,862.937 317.51,868.828 313.468,872.87L247.311,939.026C243.798,942.54 242.747,947.824 244.648,952.415C246.549,957.006 251.029,960 255.998,960L256,960C321.775,960 379.869,926.854 414.476,876.368ZM768,40L768.004,40C770.466,40 772.841,40.372 775.077,41.061L778.654,41.597L788.177,46.121L796.001,53.189L801.55,62.417L804.151,72.867L803.616,83.397L800.08,93.33L793.678,101.988L761.042,134.625C751.76,143.907 736.743,144.01 727.335,134.856C725.105,132.686 722.824,130.536 720.493,128.405C708.485,117.429 695.548,107.678 681.673,99.176C673.987,94.466 669.589,85.846 670.285,76.859C670.981,67.872 676.654,60.032 684.974,56.562C710.54,45.898 738.587,40 768,40ZM694.213,78.712C709.393,88.015 723.548,98.682 736.685,110.69C739.202,112.991 741.664,115.312 744.071,117.654L776.708,85.018C780.229,81.497 781.282,76.201 779.377,71.601C777.472,67 772.982,64 768.003,64L768,64C741.861,64 716.934,69.235 694.213,78.712ZM859.165,293.295L922.099,230.362L930.745,223.968L940.665,220.436L951.18,219.902L961.615,222.499L970.832,228.041L977.89,235.855L982.407,245.366C982.407,245.366 984,256 984,256C984,370.884 894.11,464.932 780.892,471.62C771.707,472.163 763.021,467.407 758.53,459.376C754.039,451.346 754.534,441.455 759.805,433.914C764.489,427.211 768.546,420.784 771.967,414.627C790.033,382.108 799.387,346.682 799.985,308.34C800.1,300.945 803.618,294.017 809.521,289.561C815.423,285.104 823.05,283.618 830.194,285.532L859.165,293.295ZM823.982,308.714C823.32,351.13 812.932,390.308 792.946,426.282C789.156,433.106 784.668,440.234 779.477,447.662C880.11,441.717 960,358.114 960,256C960,251.041 957.013,246.57 952.432,244.672C947.85,242.775 942.577,243.824 939.071,247.331L872.87,313.532C868.828,317.574 862.937,319.152 857.415,317.673L823.982,308.714Z"/>
    </g>
</svg>
